<?xml version="1.0" standalone="no"?><svg xmlns="http://www.w3.org/2000/svg"  viewBox="0 0 1440 320"><path fill="#000b76" fill-opacity="1" d="M0,96L20,133.3C40,171,80,245,120,266.7C160,288,200,256,240,245.3C280,235,320,245,360,224C400,203,440,149,480,122.7C520,96,560,96,600,112C640,128,680,160,720,170.7C760,181,800,171,840,160C880,149,920,139,960,117.3C1000,96,1040,64,1080,74.7C1120,85,1160,139,1200,176C1240,213,1280,235,1320,234.7C1360,235,1400,213,1420,202.7L1440,192L1440,320L1420,320C1400,320,1360,320,1320,320C1280,320,1240,320,1200,320C1160,320,1120,320,1080,320C1040,320,1000,320,960,320C920,320,880,320,840,320C800,320,760,320,720,320C680,320,640,320,600,320C560,320,520,320,480,320C440,320,400,320,360,320C320,320,280,320,240,320C200,320,160,320,120,320C80,320,40,320,20,320L0,320Z"></path></svg>